<svg xmlns="http://www.w3.org/2000/svg" viewBox="0 0 1024 1024" fill="none">
  <defs>
    <linearGradient id="app-bg" x1="512" y1="100" x2="512" y2="924" gradientUnits="userSpaceOnUse">
      <stop offset="0" stop-color="#9576F7"/>
      <stop offset="0.48" stop-color="#6670EF"/>
      <stop offset="1" stop-color="#4A7AF6"/>
    </linearGradient>
    <filter id="rocket-shadow" x="220" y="220" width="600" height="620" filterUnits="userSpaceOnUse" color-interpolation-filters="sRGB">
      <feGaussianBlur stdDeviation="18"/>
    </filter>
  </defs>
  <rect x="100" y="100" width="824" height="824" rx="210" fill="url(#app-bg)"/>
  <path d="M 646.5 270 L 674.5 270 L 675.5 271 L 695.5 271 L 696.5 272 L 706.5 272 L 707.5 273 L 715.5 273 L 716.5 274 L 722.5 274 L 723.5 275 L 728.5 275 L 729.5 276 L 733.5 276 Q 734.2 277.8 737.5 277 Q 742.3 278.7 745 282.5 Q 747.5 284.5 747 289.5 L 748 290.5 L 748 295.5 L 749 296.5 Q 747.7 301.2 750 302.5 L 750 308.5 L 751 309.5 L 751 317.5 L 752 318.5 L 752 329.5 L 753 330.5 L 753 352.5 L 754 353.5 L 754 375.5 L 753 376.5 L 753 391.5 L 752 392.5 L 752 399.5 L 751 400.5 L 751 406.5 L 750 407.5 L 750 412.5 Q 748 413.5 749 417.5 Q 744.6 437.6 737 454.5 Q 728 475 715 491.5 Q 697.7 514.2 676.5 533 Q 656.7 551.2 633 565.5 L 633 668.5 Q 628.3 690.8 612.5 702 L 611.5 702 L 610.5 703 L 609.5 703 L 608.5 704 L 607.5 704 L 606.5 705 L 605.5 705 L 604.5 706 L 603.5 706 L 602.5 707 L 601.5 707 L 600.5 708 L 599.5 708 L 598.5 709 L 597.5 709 L 596.5 710 L 595.5 710 L 594.5 711 L 593.5 711 L 592.5 712 L 591.5 712 L 590.5 713 L 589.5 713 L 588.5 714 L 587.5 714 L 586.5 715 L 585.5 715 L 584.5 716 L 583.5 716 L 582.5 717 L 581.5 717 L 580.5 718 L 579.5 718 L 578.5 719 L 577.5 719 L 576.5 720 L 575.5 720 L 574.5 721 L 573.5 721 L 572.5 722 L 571.5 722 L 570.5 723 L 569.5 723 L 568.5 724 L 567.5 724 L 566.5 725 L 565.5 725 L 564.5 726 L 563.5 726 L 562.5 727 L 561.5 727 L 560.5 728 L 559.5 728 L 558.5 729 L 557.5 729 L 556.5 730 L 555.5 730 L 554.5 731 L 553.5 731 L 552.5 732 L 551.5 732 L 550.5 733 L 549.5 733 L 548.5 734 L 547.5 734 L 546.5 735 L 545.5 735 L 544.5 736 L 543.5 736 L 542.5 737 L 541.5 737 L 540.5 738 L 539.5 738 L 538.5 739 L 537.5 739 L 536.5 740 L 535.5 740 L 534.5 741 L 533.5 741 L 532.5 742 L 531.5 742 L 530.5 743 L 529.5 743 L 528.5 744 L 527.5 744 L 526.5 745 L 525.5 745 L 524.5 746 L 523.5 746 L 522.5 747 L 521.5 747 Q 517.9 750.9 511.5 752 L 510.5 753 Q 505.7 752.2 503.5 754 L 502.5 753 L 498.5 753 L 497.5 752 Q 493.2 752.3 491.5 750 L 486 744.5 L 486 743.5 Q 482.8 741.2 482 736.5 L 482 633.5 L 481.5 633 Q 471.1 645.1 459.5 656 L 458.5 656 Q 455.6 659.6 450.5 661 Q 448 660.5 447.5 662 Q 441.8 661.3 438.5 663 Q 437 660.5 431.5 662 Q 425 660.5 420.5 657 L 367 603.5 L 367 602.5 Q 363.1 599.4 362 593.5 L 362 588.5 Q 360 587.5 361 583.5 Q 363.5 582 362 576.5 L 363 575.5 L 363 573.5 Q 365.5 571.5 366 567.5 Q 372.6 557.1 382.5 550 L 383.5 550 L 391 542.5 L 390.5 542 L 287.5 542 Q 278.4 539.5 274 532.5 Q 269.8 527.2 270 517.5 L 271 516.5 Q 270.6 512.6 272 510.5 L 273 509.5 Q 293.6 465.6 316 423.5 L 316 421.5 Q 318.5 419.5 319 415.5 Q 322.9 408.9 328.5 404 Q 338.8 394.8 354.5 391 L 457.5 391 L 460 388.5 Q 482.5 352 513.5 324 Q 539.4 298.9 575.5 284 L 577.5 284 L 578.5 283 L 580.5 283 L 581.5 282 L 583.5 282 L 584.5 281 L 586.5 281 L 587.5 280 Q 591.8 280.3 593.5 278 L 596.5 278 L 597.5 277 Q 600.8 277.8 601.5 276 L 605.5 276 L 606.5 275 Q 609.7 275.8 610.5 274 Q 615.3 275.3 616.5 273 L 622.5 273 L 623.5 272 L 630.5 272 L 631.5 271 L 645.5 271 L 646.5 270 Z M 625 354 Q 616 356 610 361 Q 598 369 595 387 L 595 397 Q 597 398 596 402 Q 599 412 605 419 Q 610 423 617 426 Q 621 426 623 428 L 628 428 L 629 429 Q 647 430 657 421 Q 666 413 670 400 Q 672 387 669 380 Q 666 371 661 366 Q 655 358 645 355 Q 637 352 625 354 Z " fill="#5F6FF1" fill-rule="evenodd" clip-rule="evenodd" opacity="0.16" transform="translate(0 14)" filter="url(#rocket-shadow)"/>
  <path d="M 646.5 270 L 674.5 270 L 675.5 271 L 695.5 271 L 696.5 272 L 706.5 272 L 707.5 273 L 715.5 273 L 716.5 274 L 722.5 274 L 723.5 275 L 728.5 275 L 729.5 276 L 733.5 276 Q 734.2 277.8 737.5 277 Q 742.3 278.7 745 282.5 Q 747.5 284.5 747 289.5 L 748 290.5 L 748 295.5 L 749 296.5 Q 747.7 301.2 750 302.5 L 750 308.5 L 751 309.5 L 751 317.5 L 752 318.5 L 752 329.5 L 753 330.5 L 753 352.5 L 754 353.5 L 754 375.5 L 753 376.5 L 753 391.5 L 752 392.5 L 752 399.5 L 751 400.5 L 751 406.5 L 750 407.5 L 750 412.5 Q 748 413.5 749 417.5 Q 744.6 437.6 737 454.5 Q 728 475 715 491.5 Q 697.7 514.2 676.5 533 Q 656.7 551.2 633 565.5 L 633 668.5 Q 628.3 690.8 612.5 702 L 611.5 702 L 610.5 703 L 609.5 703 L 608.5 704 L 607.5 704 L 606.5 705 L 605.5 705 L 604.5 706 L 603.5 706 L 602.5 707 L 601.5 707 L 600.5 708 L 599.5 708 L 598.5 709 L 597.5 709 L 596.5 710 L 595.5 710 L 594.5 711 L 593.5 711 L 592.5 712 L 591.5 712 L 590.5 713 L 589.5 713 L 588.5 714 L 587.5 714 L 586.5 715 L 585.5 715 L 584.5 716 L 583.5 716 L 582.5 717 L 581.5 717 L 580.5 718 L 579.5 718 L 578.5 719 L 577.5 719 L 576.5 720 L 575.5 720 L 574.5 721 L 573.5 721 L 572.5 722 L 571.5 722 L 570.5 723 L 569.5 723 L 568.5 724 L 567.5 724 L 566.5 725 L 565.5 725 L 564.5 726 L 563.5 726 L 562.5 727 L 561.5 727 L 560.5 728 L 559.5 728 L 558.5 729 L 557.5 729 L 556.5 730 L 555.5 730 L 554.5 731 L 553.5 731 L 552.5 732 L 551.5 732 L 550.5 733 L 549.5 733 L 548.5 734 L 547.5 734 L 546.5 735 L 545.5 735 L 544.5 736 L 543.5 736 L 542.5 737 L 541.5 737 L 540.5 738 L 539.5 738 L 538.5 739 L 537.5 739 L 536.5 740 L 535.5 740 L 534.5 741 L 533.5 741 L 532.5 742 L 531.5 742 L 530.5 743 L 529.5 743 L 528.5 744 L 527.5 744 L 526.5 745 L 525.5 745 L 524.5 746 L 523.5 746 L 522.5 747 L 521.5 747 Q 517.9 750.9 511.5 752 L 510.5 753 Q 505.7 752.2 503.5 754 L 502.5 753 L 498.5 753 L 497.5 752 Q 493.2 752.3 491.5 750 L 486 744.5 L 486 743.5 Q 482.8 741.2 482 736.5 L 482 633.5 L 481.5 633 Q 471.1 645.1 459.5 656 L 458.5 656 Q 455.6 659.6 450.5 661 Q 448 660.5 447.5 662 Q 441.8 661.3 438.5 663 Q 437 660.5 431.5 662 Q 425 660.5 420.5 657 L 367 603.5 L 367 602.5 Q 363.1 599.4 362 593.5 L 362 588.5 Q 360 587.5 361 583.5 Q 363.5 582 362 576.5 L 363 575.5 L 363 573.5 Q 365.5 571.5 366 567.5 Q 372.6 557.1 382.5 550 L 383.5 550 L 391 542.5 L 390.5 542 L 287.5 542 Q 278.4 539.5 274 532.5 Q 269.8 527.2 270 517.5 L 271 516.5 Q 270.6 512.6 272 510.5 L 273 509.5 Q 293.6 465.6 316 423.5 L 316 421.5 Q 318.5 419.5 319 415.5 Q 322.9 408.9 328.5 404 Q 338.8 394.8 354.5 391 L 457.5 391 L 460 388.5 Q 482.5 352 513.5 324 Q 539.4 298.9 575.5 284 L 577.5 284 L 578.5 283 L 580.5 283 L 581.5 282 L 583.5 282 L 584.5 281 L 586.5 281 L 587.5 280 Q 591.8 280.3 593.5 278 L 596.5 278 L 597.5 277 Q 600.8 277.8 601.5 276 L 605.5 276 L 606.5 275 Q 609.7 275.8 610.5 274 Q 615.3 275.3 616.5 273 L 622.5 273 L 623.5 272 L 630.5 272 L 631.5 271 L 645.5 271 L 646.5 270 Z M 625 354 Q 616 356 610 361 Q 598 369 595 387 L 595 397 Q 597 398 596 402 Q 599 412 605 419 Q 610 423 617 426 Q 621 426 623 428 L 628 428 L 629 429 Q 647 430 657 421 Q 666 413 670 400 Q 672 387 669 380 Q 666 371 661 366 Q 655 358 645 355 Q 637 352 625 354 Z " fill="#FFFFFF" fill-rule="evenodd" clip-rule="evenodd"/>
</svg>
