<svg xmlns="http://www.w3.org/2000/svg" viewBox="0 0 22 22" fill="#000000">
  <!--
    Qingqi（轻启）系统托盘图标
    倾斜飞行的火箭 —— 倾角 22° 呈现飞行姿态
    流线箭体 + 小巧尾翼 + 短尾焰
  -->
  <g transform="rotate(22, 11, 11)">
    <path d="
      M 11 0.5
      C 9.5 2.5, 8 4, 8 5.5
      L 8 11
      C 6.5 12, 5.5 13, 5 14
      C 4.5 15, 5.5 15.5, 6 15
      L 8 14
      C 8.5 16, 10 17.5, 11 18.5
      C 12 17.5, 13.5 16, 14 14
      L 16 15
      C 16.5 15.5, 17.5 15, 17 14
      C 16.5 13, 15.5 12, 14 11
      L 14 5.5
      C 14 4, 12.5 2.5, 11 0.5
      Z
    "/>
  </g>
</svg>
