<svg xmlns="http://www.w3.org/2000/svg" viewBox="0 0 1024 1024" fill="none">
  <defs>
    <linearGradient id="bg" x1="80" y1="64" x2="944" y2="960" gradientUnits="userSpaceOnUse">
      <stop offset="0" stop-color="#7B58F5"/>
      <stop offset="0.55" stop-color="#5A62F2"/>
      <stop offset="1" stop-color="#2E68F8"/>
    </linearGradient>
    <linearGradient id="body" x1="256" y1="80" x2="256" y2="420" gradientUnits="userSpaceOnUse">
      <stop offset="0" stop-color="#FFFFFF"/>
      <stop offset="1" stop-color="#E4ECFF"/>
    </linearGradient>
    <linearGradient id="glass" x1="230" y1="170" x2="290" y2="230" gradientUnits="userSpaceOnUse">
      <stop offset="0" stop-color="#B8F0FF"/>
      <stop offset="1" stop-color="#5AC8FA"/>
    </linearGradient>
  </defs>
  <rect width="1024" height="1024" rx="228" fill="url(#bg)"/>
  <g transform="translate(512 500) rotate(-36)">
    <g transform="translate(-256 -300)">
      <path d="M256 36 L168 148 L344 148 Z" fill="url(#body)"/>
      <rect x="168" y="122" width="176" height="236" rx="56" fill="url(#body)"/>
      <path d="M256 36 L168 148 L168 292" stroke="#2E3C7A" stroke-opacity="0.35" stroke-width="10" stroke-linejoin="round"/>
      <path d="M256 36 L344 148 L344 292" stroke="#2E3C7A" stroke-opacity="0.22" stroke-width="10" stroke-linejoin="round"/>
      <path d="M178 272 L86 388 L192 352 Z" fill="#FF6B6B"/>
      <path d="M334 272 L426 388 L320 352 Z" fill="#FF6B6B"/>
      <path d="M226 352 L256 488 L286 352 Z" fill="#FF8C42"/>
      <path d="M240 358 L256 448 L272 358 Z" fill="#FFDC58"/>
      <ellipse cx="256" cy="202" rx="46" ry="46" fill="#233782"/>
      <ellipse cx="256" cy="202" rx="32" ry="32" fill="url(#glass)"/>
      <ellipse cx="248" cy="192" rx="11" ry="11" fill="#FFFFFF" fill-opacity="0.85"/>
    </g>
  </g>
</svg>
